<svg xmlns="http://www.w3.org/2000/svg" xml:space="preserve" width="100" height="100" viewBox="0 0 26.458 26.458">
  <path d="M6.965 19.054c0-.174-.066-.344-.052-.516.017-.204.032-.414.052-.62.01-.102.069-.206.043-.31-.045-.18-.226-.34-.301-.515a1.63 1.63 0 0 1 .017-1.291c.087-.201.232-.376.336-.568.248-.458.493-.964.937-1.273.211-.147.519-.25.775-.276.16-.015.37.066.516.009.234-.09.454-.323.671-.456.286-.175.587-.283.878-.439.19-.101.215-.291.327-.456.128-.188.31-.371.499-.499.498-.339 1.076-.275 1.652-.275.266 0 .564-.037.826.017.432.09.798.354 1.067.706.103.134.154.34.284.447.158.131.428.188.61.284.35.185.647.45.981.654.152.093.389-.01.568.008.509.05.98.361 1.274.775.385.544.892 1.329.92 2.013.012.289-.107.58-.24.826-.057.103-.161.194-.19.31-.026.103.033.207.043.31.021.218.04.454.052.67.008.154-.052.308-.052.465h1.704c.774 0 1.46.003 2.047-.585.8-.799.637-1.993.637-3.028V8.42c0-.97.187-2.216-.516-2.994-.836-.926-2.017-.723-3.15-.723h-4.697c-.762 0-1.565.073-2.323 0-.586-.057-.878-.407-1.24-.826-.542-.631-1.027-1.51-1.754-1.945-.59-.352-1.304-.275-1.962-.275H5.726c-.39 0-.8-.038-1.187 0-.814.08-1.616.635-1.842 1.445-.161.582-.12 1.206-.12 1.807v10.532c0 1.158-.163 2.454.878 3.235.52.39 1.083.378 1.703.378zm4.853-16.623.722.93.362.387.826.077 1.703.052 4.388-.052 2.84.155a1.91 1.91 0 0 0-1.497-1.531c-.387-.081-.845-.018-1.24-.018zM7.946 17.247c-.221.765-.315 1.937 0 2.685-1.072.423-.191 1.737.224 2.323.17.24.451.43.757.413.152-.009.376-.163.516-.12.2.06.445.361.62.49.437.322 1.1.722 1.651.766 0 .126.011.239.043.361.182.69.894.62 1.454.62s1.272.07 1.455-.62c.032-.122.043-.235.043-.361.567-.045 1.255-.456 1.703-.792.165-.123.376-.406.568-.465.118-.036.291.092.413.112.333.056.683-.126.86-.404.258-.404.693-.96.74-1.446.036-.363-.15-.771-.516-.877.221-.764.315-1.937 0-2.685 1.072-.423.191-1.737-.224-2.323-.17-.24-.451-.43-.757-.413-.152.009-.376.163-.516.12-.192-.058-.403-.34-.568-.464-.458-.343-1.12-.745-1.703-.791a1.6 1.6 0 0 0-.07-.465c-.217-.603-.921-.516-1.428-.516-.262 0-.57-.044-.826.017-.248.059-.507.256-.602.499-.05.13-.024.348-.129.447-.067.064-.168.06-.25.086-.192.065-.383.157-.567.241-.486.223-.86.556-1.29.86-.211.15-.393-.021-.62-.034a.9.9 0 0 0-.654.267c-.118.129-.195.307-.284.456-.328.55-.892 1.276-.301 1.859a.5.5 0 0 0 .258.154m5.11-1.746c.185-.028.338.025.517.043 1.684.164 2.901 1.653 2.736 3.355-.14 1.444-1.345 2.648-2.788 2.788-2.584.251-4.358-2.767-2.874-4.904.586-.843 1.45-1.136 2.41-1.282"
    style="fill:#FFFFFF;stroke:none"/>
</svg>
